<mxfile host="Electron" modified="2025-08-12T13:55:54.801Z" agent="Mozilla/5.0 (Windows NT 10.0; Win64; x64) AppleWebKit/537.36 (KHTML, like Gecko) draw.io/24.2.5 Chrome/120.0.6099.109 Electron/28.1.0 Safari/537.36" etag="CAOPVVRmBTr2c28e2-1F" version="24.2.5" type="device">
  <diagram name="Page-1" id="2a216829-ef6e-dabb-86c1-c78162f3ba2b">
    <mxGraphModel dx="1434" dy="964" grid="1" gridSize="10" guides="1" tooltips="1" connect="1" arrows="1" fold="1" page="1" pageScale="1" pageWidth="850" pageHeight="1100" background="none" math="0" shadow="0">
      <root>
        <mxCell id="0" />
        <mxCell id="1" parent="0" />
        <mxCell id="7a84cebc1def654-1" value="" style="shape=mxgraph.bpmn.shape;html=1;verticalLabelPosition=bottom;labelBackgroundColor=#ffffff;verticalAlign=top;perimeter=ellipsePerimeter;outline=standard;symbol=general;" parent="1" vertex="1">
          <mxGeometry x="340" y="20" width="50" height="50" as="geometry" />
        </mxCell>
        <mxCell id="7a84cebc1def654-2" value="GerÃ¤t einschalten" style="shape=ext;rounded=1;html=1;whiteSpace=wrap;" parent="1" vertex="1">
          <mxGeometry x="310" y="95" width="109.99999999999999" height="60" as="geometry" />
        </mxCell>
        <mxCell id="7a84cebc1def654-3" value="Autostart Systemdienste" style="shape=ext;rounded=1;html=1;whiteSpace=wrap;" parent="1" vertex="1">
          <mxGeometry x="310" y="185" width="109.99999999999999" height="60" as="geometry" />
        </mxCell>
        <mxCell id="7a84cebc1def654-8" value="WLAN Mesh initialisieren" style="shape=ext;rounded=1;html=1;whiteSpace=wrap;" parent="1" vertex="1">
          <mxGeometry x="310" y="275" width="109.99999999999999" height="60" as="geometry" />
        </mxCell>
        <mxCell id="7a84cebc1def654-9" value="Knotenausfall?" style="shape=mxgraph.bpmn.shape;html=1;verticalLabelPosition=bottom;labelBackgroundColor=none;verticalAlign=top;perimeter=rhombusPerimeter;background=gateway;outline=none;symbol=parallelGw;" parent="1" vertex="1">
          <mxGeometry x="340" y="635" width="50" height="50" as="geometry" />
        </mxCell>
        <mxCell id="7a84cebc1def654-36" style="edgeStyle=orthogonalEdgeStyle;rounded=0;html=1;jettySize=auto;orthogonalLoop=1;" parent="1" source="7a84cebc1def654-1" target="7a84cebc1def654-2" edge="1">
          <mxGeometry relative="1" as="geometry" />
        </mxCell>
        <mxCell id="7a84cebc1def654-39" style="edgeStyle=orthogonalEdgeStyle;rounded=0;html=1;jettySize=auto;orthogonalLoop=1;" parent="1" source="7a84cebc1def654-2" target="7a84cebc1def654-3" edge="1">
          <mxGeometry relative="1" as="geometry" />
        </mxCell>
        <mxCell id="d2HoR_rY1_GPFjVi6Aux-2" style="edgeStyle=orthogonalEdgeStyle;rounded=0;html=1;jettySize=auto;orthogonalLoop=1;exitX=0.5;exitY=1;exitDx=0;exitDy=0;entryX=0.5;entryY=0;entryDx=0;entryDy=0;" parent="1" source="7a84cebc1def654-3" target="7a84cebc1def654-8" edge="1">
          <mxGeometry relative="1" as="geometry">
            <mxPoint x="555" y="335" as="sourcePoint" />
            <mxPoint x="555" y="405" as="targetPoint" />
          </mxGeometry>
        </mxCell>
        <mxCell id="d2HoR_rY1_GPFjVi6Aux-3" value="VoIP Server und Client starten" style="shape=ext;rounded=1;html=1;whiteSpace=wrap;" parent="1" vertex="1">
          <mxGeometry x="310" y="365" width="109.99999999999999" height="60" as="geometry" />
        </mxCell>
        <mxCell id="d2HoR_rY1_GPFjVi6Aux-4" style="edgeStyle=orthogonalEdgeStyle;rounded=0;html=1;jettySize=auto;orthogonalLoop=1;exitX=0.5;exitY=1;exitDx=0;exitDy=0;entryX=0.5;entryY=0;entryDx=0;entryDy=0;" parent="1" source="7a84cebc1def654-8" target="d2HoR_rY1_GPFjVi6Aux-3" edge="1">
          <mxGeometry relative="1" as="geometry">
            <mxPoint x="370" y="545" as="sourcePoint" />
            <mxPoint x="555" y="615" as="targetPoint" />
          </mxGeometry>
        </mxCell>
        <mxCell id="d2HoR_rY1_GPFjVi6Aux-5" value="Server-Discovery im Mesh" style="shape=ext;rounded=1;html=1;whiteSpace=wrap;" parent="1" vertex="1">
          <mxGeometry x="310" y="455" width="109.99999999999999" height="60" as="geometry" />
        </mxCell>
        <mxCell id="d2HoR_rY1_GPFjVi6Aux-6" style="edgeStyle=orthogonalEdgeStyle;rounded=0;html=1;jettySize=auto;orthogonalLoop=1;exitX=0.5;exitY=1;exitDx=0;exitDy=0;entryX=0.5;entryY=0;entryDx=0;entryDy=0;" parent="1" source="d2HoR_rY1_GPFjVi6Aux-3" target="d2HoR_rY1_GPFjVi6Aux-5" edge="1">
          <mxGeometry relative="1" as="geometry">
            <mxPoint x="555" y="565" as="sourcePoint" />
            <mxPoint x="740" y="635" as="targetPoint" />
          </mxGeometry>
        </mxCell>
        <mxCell id="d2HoR_rY1_GPFjVi6Aux-7" value="gesicherte Verbindung" style="shape=ext;rounded=1;html=1;whiteSpace=wrap;" parent="1" vertex="1">
          <mxGeometry x="310" y="545" width="109.99999999999999" height="60" as="geometry" />
        </mxCell>
        <mxCell id="d2HoR_rY1_GPFjVi6Aux-8" style="edgeStyle=orthogonalEdgeStyle;rounded=0;html=1;jettySize=auto;orthogonalLoop=1;entryX=0.5;entryY=0;entryDx=0;entryDy=0;exitX=0.5;exitY=1;exitDx=0;exitDy=0;" parent="1" source="d2HoR_rY1_GPFjVi6Aux-5" target="d2HoR_rY1_GPFjVi6Aux-7" edge="1">
          <mxGeometry relative="1" as="geometry">
            <mxPoint x="370" y="675" as="sourcePoint" />
            <mxPoint x="870" y="695" as="targetPoint" />
          </mxGeometry>
        </mxCell>
        <mxCell id="d2HoR_rY1_GPFjVi6Aux-9" value="Mikrofon aktivieren" style="shape=ext;rounded=1;html=1;whiteSpace=wrap;" parent="1" vertex="1">
          <mxGeometry x="200" y="695" width="109.99999999999999" height="60" as="geometry" />
        </mxCell>
        <mxCell id="d2HoR_rY1_GPFjVi6Aux-10" style="edgeStyle=orthogonalEdgeStyle;rounded=0;html=1;jettySize=auto;orthogonalLoop=1;exitX=0;exitY=0.5;exitDx=0;exitDy=0;entryX=0.5;entryY=0;entryDx=0;entryDy=0;" parent="1" source="7a84cebc1def654-9" target="d2HoR_rY1_GPFjVi6Aux-9" edge="1">
          <mxGeometry relative="1" as="geometry">
            <mxPoint x="745" y="745" as="sourcePoint" />
            <mxPoint x="930" y="815" as="targetPoint" />
          </mxGeometry>
        </mxCell>
        <mxCell id="d2HoR_rY1_GPFjVi6Aux-23" value="Nein" style="edgeLabel;html=1;align=center;verticalAlign=middle;resizable=0;points=[];" parent="d2HoR_rY1_GPFjVi6Aux-10" vertex="1" connectable="0">
          <mxGeometry x="-0.2133" y="-2" relative="1" as="geometry">
            <mxPoint as="offset" />
          </mxGeometry>
        </mxCell>
        <mxCell id="d2HoR_rY1_GPFjVi6Aux-11" style="edgeStyle=orthogonalEdgeStyle;rounded=0;orthogonalLoop=1;jettySize=auto;html=1;exitX=0.5;exitY=1;exitDx=0;exitDy=0;" parent="1" source="d2HoR_rY1_GPFjVi6Aux-3" target="d2HoR_rY1_GPFjVi6Aux-3" edge="1">
          <mxGeometry relative="1" as="geometry" />
        </mxCell>
        <mxCell id="d2HoR_rY1_GPFjVi6Aux-13" style="edgeStyle=orthogonalEdgeStyle;rounded=0;html=1;jettySize=auto;orthogonalLoop=1;entryX=0.5;entryY=0;entryDx=0;entryDy=0;exitX=0.5;exitY=1;exitDx=0;exitDy=0;" parent="1" source="d2HoR_rY1_GPFjVi6Aux-7" target="7a84cebc1def654-9" edge="1">
          <mxGeometry relative="1" as="geometry">
            <mxPoint x="485" y="875" as="sourcePoint" />
            <mxPoint x="485" y="925" as="targetPoint" />
          </mxGeometry>
        </mxCell>
        <mxCell id="d2HoR_rY1_GPFjVi6Aux-15" style="edgeStyle=orthogonalEdgeStyle;rounded=0;html=1;jettySize=auto;orthogonalLoop=1;exitX=1;exitY=0.5;exitDx=0;exitDy=0;entryX=0.5;entryY=0;entryDx=0;entryDy=0;" parent="1" source="7a84cebc1def654-9" target="d2HoR_rY1_GPFjVi6Aux-30" edge="1">
          <mxGeometry relative="1" as="geometry">
            <mxPoint x="585" y="890" as="sourcePoint" />
            <mxPoint x="475" y="700" as="targetPoint" />
          </mxGeometry>
        </mxCell>
        <mxCell id="d2HoR_rY1_GPFjVi6Aux-22" value="Ja" style="edgeLabel;html=1;align=center;verticalAlign=middle;resizable=0;points=[];" parent="d2HoR_rY1_GPFjVi6Aux-15" vertex="1" connectable="0">
          <mxGeometry x="-0.1867" y="-4" relative="1" as="geometry">
            <mxPoint y="-4" as="offset" />
          </mxGeometry>
        </mxCell>
        <mxCell id="d2HoR_rY1_GPFjVi6Aux-16" value="" style="points=[[0.145,0.145,0],[0.5,0,0],[0.855,0.145,0],[1,0.5,0],[0.855,0.855,0],[0.5,1,0],[0.145,0.855,0],[0,0.5,0]];shape=mxgraph.bpmn.event;html=1;verticalLabelPosition=bottom;labelBackgroundColor=none;verticalAlign=top;align=center;perimeter=ellipsePerimeter;outlineConnect=0;aspect=fixed;outline=end;symbol=terminate;" parent="1" vertex="1">
          <mxGeometry x="340" y="980" width="50" height="50" as="geometry" />
        </mxCell>
        <mxCell id="d2HoR_rY1_GPFjVi6Aux-17" value="Spache senden" style="shape=ext;rounded=1;html=1;whiteSpace=wrap;" parent="1" vertex="1">
          <mxGeometry x="310" y="800" width="109.99999999999999" height="60" as="geometry" />
        </mxCell>
        <mxCell id="d2HoR_rY1_GPFjVi6Aux-18" style="edgeStyle=orthogonalEdgeStyle;rounded=0;html=1;jettySize=auto;orthogonalLoop=1;entryX=0.5;entryY=0;entryDx=0;entryDy=0;exitX=0.5;exitY=1;exitDx=0;exitDy=0;" parent="1" source="d2HoR_rY1_GPFjVi6Aux-17" target="d2HoR_rY1_GPFjVi6Aux-21" edge="1">
          <mxGeometry relative="1" as="geometry">
            <mxPoint x="365" y="1215" as="sourcePoint" />
            <mxPoint x="365" y="900" as="targetPoint" />
          </mxGeometry>
        </mxCell>
        <mxCell id="d2HoR_rY1_GPFjVi6Aux-19" style="edgeStyle=orthogonalEdgeStyle;rounded=0;html=1;jettySize=auto;orthogonalLoop=1;entryX=0.5;entryY=0;entryDx=0;entryDy=0;exitX=0.5;exitY=1;exitDx=0;exitDy=0;" parent="1" source="d2HoR_rY1_GPFjVi6Aux-9" target="d2HoR_rY1_GPFjVi6Aux-17" edge="1">
          <mxGeometry relative="1" as="geometry">
            <mxPoint x="245" y="805" as="sourcePoint" />
            <mxPoint x="260" y="995" as="targetPoint" />
          </mxGeometry>
        </mxCell>
        <mxCell id="d2HoR_rY1_GPFjVi6Aux-21" value="Empfang am Zielknoten und Ausgabe" style="shape=ext;rounded=1;html=1;whiteSpace=wrap;" parent="1" vertex="1">
          <mxGeometry x="310" y="890" width="109.99999999999999" height="60" as="geometry" />
        </mxCell>
        <mxCell id="d2HoR_rY1_GPFjVi6Aux-28" style="edgeStyle=orthogonalEdgeStyle;rounded=0;html=1;jettySize=auto;orthogonalLoop=1;entryX=0.5;entryY=0;entryDx=0;entryDy=0;exitX=0.5;exitY=1;exitDx=0;exitDy=0;entryPerimeter=0;" parent="1" source="d2HoR_rY1_GPFjVi6Aux-21" target="d2HoR_rY1_GPFjVi6Aux-16" edge="1">
          <mxGeometry relative="1" as="geometry">
            <mxPoint x="375" y="870" as="sourcePoint" />
            <mxPoint x="265" y="910" as="targetPoint" />
          </mxGeometry>
        </mxCell>
        <mxCell id="d2HoR_rY1_GPFjVi6Aux-30" value="Re-Routing" style="shape=ext;rounded=1;html=1;whiteSpace=wrap;" parent="1" vertex="1">
          <mxGeometry x="420" y="695" width="109.99999999999999" height="60" as="geometry" />
        </mxCell>
        <mxCell id="d2HoR_rY1_GPFjVi6Aux-32" style="edgeStyle=orthogonalEdgeStyle;rounded=0;html=1;jettySize=auto;orthogonalLoop=1;entryX=1;entryY=0.5;entryDx=0;entryDy=0;exitX=0.5;exitY=1;exitDx=0;exitDy=0;" parent="1" source="d2HoR_rY1_GPFjVi6Aux-30" target="d2HoR_rY1_GPFjVi6Aux-5" edge="1">
          <mxGeometry relative="1" as="geometry">
            <mxPoint x="490" y="800" as="sourcePoint" />
            <mxPoint x="600" y="845" as="targetPoint" />
            <Array as="points">
              <mxPoint x="475" y="810" />
              <mxPoint x="550" y="810" />
              <mxPoint x="550" y="485" />
            </Array>
          </mxGeometry>
        </mxCell>
      </root>
    </mxGraphModel>
  </diagram>
</mxfile>
